<svg xmlns="http://www.w3.org/2000/svg" xmlns:xlink="http://www.w3.org/1999/xlink" viewBox="0 0 22.01 22.01"><defs><style>.cls-1{mask:url(#mask);}.cls-2,.cls-21{mix-blend-mode:multiply;}.cls-2{fill:url(#linear-gradient);}.cls-3{isolation:isolate;}.cls-4{fill:#232324;}.cls-5{fill:#a8734c;}.cls-12,.cls-13,.cls-14,.cls-18,.cls-23,.cls-5,.cls-6,.cls-9{stroke:#1d1d1b;stroke-miterlimit:10;stroke-width:0.25px;}.cls-6{fill:#181b1a;}.cls-7,.cls-8{mix-blend-mode:color-burn;}.cls-7{fill:url(#radial-gradient);}.cls-8{fill:url(#radial-gradient-2);}.cls-9{fill:url(#linear-gradient-2);}.cls-10{opacity:0.3;mix-blend-mode:screen;}.cls-11{mask:url(#mask-2);}.cls-12{fill:url(#linear-gradient-3);}.cls-13{fill:#591412;}.cls-14{fill:none;}.cls-15{fill:#fcfbfc;}.cls-16{fill:#80452f;}.cls-17{fill:#020304;}.cls-18{fill:url(#Áåçûìÿííûé_ãðàäèåíò_300);}.cls-19,.cls-21{fill:#1d1d1b;}.cls-20{fill:#4f2f1a;}.cls-22{fill:#fff;}.cls-23{fill:url(#Áåçûìÿííûé_ãðàäèåíò_300-2);}.cls-24{fill:#4f2f13;}.cls-25{filter:url(#luminosity-noclip-2);}.cls-26{filter:url(#luminosity-noclip);}</style><filter id="luminosity-noclip" x="821.92" y="-8486.04" width="7.6" height="32766" filterUnits="userSpaceOnUse" color-interpolation-filters="sRGB"><feFlood flood-color="#fff" result="bg"/><feBlend in="SourceGraphic" in2="bg"/></filter><mask id="mask" x="821.92" y="-8486.04" width="7.6" height="32766" maskUnits="userSpaceOnUse"><g class="cls-26"/></mask><linearGradient id="linear-gradient" x1="614.3" y1="-56.7" x2="614.3" y2="-51.47" gradientTransform="matrix(1.02, 0.1, -0.1, 1.02, 192.27, 8.7)" gradientUnits="userSpaceOnUse"><stop offset="0" stop-color="#ccc"/><stop offset="1" stop-color="gray"/></linearGradient><radialGradient id="radial-gradient" cx="-429.62" cy="-964.94" r="27.94" gradientTransform="matrix(-0.01, 0.13, -0.1, -0.01, 726.87, 65.91)" gradientUnits="userSpaceOnUse"><stop offset="0.39" stop-color="#fff"/><stop offset="0.66" stop-color="#e6e6e6"/><stop offset="0.68" stop-color="#e8e8e8"/><stop offset="0.86" stop-color="#f9f9f9"/><stop offset="1" stop-color="#fff"/></radialGradient><radialGradient id="radial-gradient-2" cx="-385.3" cy="-1017.15" r="27.94" gradientTransform="matrix(0, 0.14, -0.09, -0.01, 743.1, 66.58)" xlink:href="#radial-gradient"/><linearGradient id="linear-gradient-2" x1="821.09" y1="17.47" x2="840.07" y2="17.47" gradientUnits="userSpaceOnUse"><stop offset="0" stop-color="#010101"/><stop offset="0.37" stop-color="#383938"/><stop offset="0.55" stop-color="#383938"/><stop offset="1" stop-color="#010101"/></linearGradient><filter id="luminosity-noclip-2" x="821.66" y="14.56" width="7.86" height="4.75" filterUnits="userSpaceOnUse" color-interpolation-filters="sRGB"><feFlood flood-color="#fff" result="bg"/><feBlend in="SourceGraphic" in2="bg"/></filter><mask id="mask-2" x="2.42" y="9.52" width="7.86" height="4.75" maskUnits="userSpaceOnUse"><g class="cls-25"><g transform="translate(-819.24 -5.05)"><g class="cls-1"><path class="cls-2" d="M829.21,15.49a26.12,26.12,0,0,0-4.72-.56c-1.42-.09-2.61-.14-2.57.58.06,1-.1,3,.88,3.26,1.72.52,4.47.81,5.26.16C828.69,18.42,830.16,15.84,829.21,15.49Z"/></g></g></g></mask><linearGradient id="linear-gradient-3" x1="614.07" y1="-56.8" x2="614.07" y2="-51.68" gradientTransform="matrix(1.02, 0.1, -0.1, 1.02, 192.27, 8.7)" gradientUnits="userSpaceOnUse"><stop offset="0" stop-color="#aeadad"/><stop offset="1" stop-color="#d9d9d9"/></linearGradient><linearGradient id="Áåçûìÿííûé_ãðàäèåíò_300" x1="-2187.35" y1="-73.91" x2="-2187.35" y2="-78.65" gradientTransform="matrix(-1, -0.01, -0.01, 0.77, -1362.1, 52.97)" gradientUnits="userSpaceOnUse"><stop offset="0" stop-color="#ede2f1"/><stop offset="1" stop-color="#bec7e7"/></linearGradient><linearGradient id="Áåçûìÿííûé_ãðàäèåíò_300-2" x1="-1049.03" y1="-298.85" x2="-1049.03" y2="-303.99" gradientTransform="matrix(0.95, 0.31, -0.24, 0.73, 1762.53, 560.7)" xlink:href="#Áåçûìÿííûé_ãðàäèåíò_300"/></defs><g class="cls-3"><g id="avatar_cariocatura_006"><rect class="cls-4" x="0.11" width="21.89" height="21.91"/><path id="silueta" class="cls-5" d="M829.73,26.93a1.39,1.39,0,0,1-.41,0c-5.57-1.13-8.88-3.48-8.53-7.27a19.48,19.48,0,0,0,.21-4.87c0-.07.09-.19.12-.34,3.19-15.17,22.22-8.65,18.24,3.73a18,18,0,0,0-.3,3.71C838.69,25.71,834.26,26.67,829.73,26.93Z" transform="translate(-819.24 -5.05)"/><g id="cejas"><path id="ceja_derecha" data-name="ceja derecha" class="cls-6" d="M823.1,14.27s0,0,0,0c2.83-2.52,4.8.67,5.8-.72C829.42,12.86,824.22,11.45,823.1,14.27Z" transform="translate(-819.24 -5.05)"/><path id="ceja_izquerda" data-name="ceja izquerda" class="cls-6" d="M838.16,15.83s0,0,0,0c-2.32-2.62-4.31-.44-5.37-1.8C832,13.16,838,13.22,838.16,15.83Z" transform="translate(-819.24 -5.05)"/></g><g id="anteojos"><ellipse class="cls-7" cx="825.52" cy="17.07" rx="2.78" ry="3.7" transform="translate(-39.68 836.45) rotate(-87.99)"/><ellipse class="cls-8" cx="835.15" cy="17.9" rx="2.49" ry="3.92" transform="translate(-51.97 845.44) rotate(-86.57)"/><path class="cls-9" d="M839.9,16.36a32.94,32.94,0,0,0-7.91-.89c-.24,0-.23.52-1.4.43s-1.06-.71-1.23-.78c-1.58-.63-7.19-1.23-8-.77-.16.09-.21.42-.23.65a.39.39,0,0,0,.18.31c.73.52-.42,3.12.81,3.61s5.56,1.32,6.5.61c1.32-1,0-2.62,1.89-2.47,1.62.14.13,2.24,1.57,3,1.14.6,4.68.66,5.74.69,1.79.06,1-3.24,2-3.56a.41.41,0,0,0,.24-.24C840.1,16.71,840.06,16.45,839.9,16.36ZM828.36,19c-1.09.5-3.05.23-5.85-.48-1-.26-.61-1.59-.55-2.55.1-1.46.54-1.23,2-1.19,2.23.06,4.36.52,4.82,1S828.83,18.74,828.36,19Zm10.56-1.9c.09,1.29-.17,3.15-1.17,3.21-1.81.09-5.29-.08-5.71-.82s-.45-3.21.48-3.38a17.67,17.67,0,0,1,4.06.17C838,16.41,838.88,16.36,838.92,17.06Z" transform="translate(-819.24 -5.05)"/><g class="cls-10"><g class="cls-11"><path class="cls-12" d="M828.53,15.61a11.6,11.6,0,0,0-4-.84c-1.43-.09-2.27-.25-2.44.45-.32,1.35-.67,3,.79,3.36,1.79.42,5.1.9,5.47.39C828.88,18.21,829.36,16,828.53,15.61Z" transform="translate(-819.24 -5.05)"/></g></g></g><g id="boca"><path class="cls-13" d="M824.72,21.47c1.95,4.51,9.91,3.18,10.4.89A80.42,80.42,0,0,1,824.72,21.47Z" transform="translate(-819.24 -5.05)"/><path class="cls-14" d="M836.44,22.85a.82.82,0,0,0,.12-.69c-.14-.28-.63-.33-1.48-.34" transform="translate(-819.24 -5.05)"/><path class="cls-14" d="M835.12,22.36c.38,0,1-.16,1.44-.22" transform="translate(-819.24 -5.05)"/><path class="cls-14" d="M823,21.42c-.13-.42-.06-.67.2-.83a1.55,1.55,0,0,1,1.35.08" transform="translate(-819.24 -5.05)"/><path class="cls-14" d="M824.72,21.47a3.76,3.76,0,0,1-1.56-.88" transform="translate(-819.24 -5.05)"/><path class="cls-15" d="M825.69,21.72c1.19,1.23,7.43,1.63,8.4.71C831.35,22.38,828.41,22,825.69,21.72Z" transform="translate(-819.24 -5.05)"/></g><path id="menton" class="cls-16" d="M827.82,24.46h0c.09.64,2.86,1,3.23.43,0,0,0,0,0,0A6.81,6.81,0,0,1,827.82,24.46Z" transform="translate(-819.24 -5.05)"/><path id="nariz" class="cls-16" d="M828.53,20.06h0c.08,1.17,2.42,1.45,2.93.36,0,0,0,0,0,0A3.8,3.8,0,0,1,828.53,20.06Z" transform="translate(-819.24 -5.05)"/><path id="cabello" class="cls-17" d="M821,14.56c-1.15-11.89,16-10.83,17.79-6.22,3.39.53,2.79,6.77.77,10.34-.17.31.33-1.59-.55-3.11a5.2,5.2,0,0,1-.68-3.94c0-.23-1.76.89-2.07.64-.47-.36,1.44-1.76,1-1.66a21.07,21.07,0,0,1-12.54-.27c-.8-.25-2,1.89-1.86,3C822.92,14.06,821.6,14.05,821,14.56Z" transform="translate(-819.24 -5.05)"/><g id="oreja_izquierda"><path id="oreja_iozquierda" class="cls-5" d="M839.07,21.72c.22.13,3.52-3.8.78-5-.08.56-.4,1.11-.47,1.61C839.23,19.33,839.29,20.72,839.07,21.72Z" transform="translate(-819.24 -5.05)"/></g><g id="oreja_derecha"><path id="oreja_derecha-2" data-name="oreja_derecha" class="cls-5" d="M821,14.76c-2.31-.3-2,3.29-.2,4.8A18.27,18.27,0,0,0,821,14.76Z" transform="translate(-819.24 -5.05)"/></g><g id="ojos"><path class="cls-18" d="M828.45,17.33c-.48,2.41-.31,1.26-3.16.92-2.37-.29-2.81-.55-2.39-1.91.28-.9.32-1.57,3.31-1C828.69,15.86,828.62,16.43,828.45,17.33Z" transform="translate(-819.24 -5.05)"/><path class="cls-19" d="M824,16.54a1.48,1.48,0,0,0,1.44,1.51A1.54,1.54,0,0,0,827.28,17a1.48,1.48,0,0,0-1.44-1.51A1.53,1.53,0,0,0,824,16.54Z" transform="translate(-819.24 -5.05)"/><path class="cls-20" d="M824.12,16.56A1.39,1.39,0,0,0,825.48,18a1.42,1.42,0,0,0,1.7-1,1.39,1.39,0,0,0-1.35-1.42A1.46,1.46,0,0,0,824.12,16.56Z" transform="translate(-819.24 -5.05)"/><path class="cls-21" d="M824.66,16.62a.9.9,0,0,0,.88.92.94.94,0,0,0,1.11-.66.92.92,0,0,0-.88-.93A1,1,0,0,0,824.66,16.62Z" transform="translate(-819.24 -5.05)"/><path class="cls-22" d="M824.76,15.78c.57,0,1.14.36,1.11.55s-.76.27-1,.11S824.44,15.77,824.76,15.78Z" transform="translate(-819.24 -5.05)"/><path class="cls-23" d="M832.39,17.89c-.11,1.77.46,1.41,2.74,1.51,2.85.12,3,.27,3-1.24,0-1.2-.08-1.82-2.9-1.92C833.22,16.17,832.44,17,832.39,17.89Z" transform="translate(-819.24 -5.05)"/><path class="cls-19" d="M836.73,17.89a1.6,1.6,0,0,1-1.8,1.3,1.57,1.57,0,0,1-1.62-1.51,1.59,1.59,0,0,1,1.81-1.3A1.57,1.57,0,0,1,836.73,17.89Z" transform="translate(-819.24 -5.05)"/><path class="cls-24" d="M836.63,17.88a1.51,1.51,0,0,1-1.7,1.23,1.48,1.48,0,0,1-1.52-1.42,1.51,1.51,0,0,1,1.7-1.23A1.47,1.47,0,0,1,836.63,17.88Z" transform="translate(-819.24 -5.05)"/><path class="cls-21" d="M836.07,17.85a1,1,0,0,1-1.11.79,1,1,0,0,1-1-.92,1,1,0,0,1,1.1-.79A1,1,0,0,1,836.07,17.85Z" transform="translate(-819.24 -5.05)"/><path class="cls-22" d="M833.91,16.92c.52-.16,1.16,0,1.2.18s-.61.46-.92.4S833.62,17,833.91,16.92Z" transform="translate(-819.24 -5.05)"/></g></g></g></svg>